<?xml version="1.0" encoding="utf-8"?>
<!-- Generator: Adobe Illustrator 27.7.0, SVG Export Plug-In . SVG Version: 6.00 Build 0)  -->
<svg version="1.1" xmlns="http://www.w3.org/2000/svg" xmlns:xlink="http://www.w3.org/1999/xlink" x="0px" y="0px"
	 viewBox="0 0 95.02 89.09" style="enable-background:new 0 0 95.02 89.09;" xml:space="preserve">
<style type="text/css">
	.st0{fill:url(#SVGID_1_);}
</style>
<g id="Ńëîé_2">
	<radialGradient id="SVGID_1_" cx="-103.5" cy="553" r="0" gradientUnits="userSpaceOnUse">
		<stop  offset="0" style="stop-color:#FFFFFF"/>
		<stop  offset="0.3921" style="stop-color:#FDFDFD"/>
		<stop  offset="0.5333" style="stop-color:#F6F7F8"/>
		<stop  offset="0.634" style="stop-color:#EBECED"/>
		<stop  offset="0.7155" style="stop-color:#DADDDF"/>
		<stop  offset="0.7852" style="stop-color:#C4C9CC"/>
		<stop  offset="0.847" style="stop-color:#A8B0B4"/>
		<stop  offset="0.9028" style="stop-color:#889298"/>
		<stop  offset="0.9525" style="stop-color:#647179"/>
		<stop  offset="0.9983" style="stop-color:#3B4C55"/>
		<stop  offset="1" style="stop-color:#394A54"/>
	</radialGradient>
	<path class="st0" d="M-103.5,553"/>
</g>
<g id="Ńëîé_1">
	<g>
		<g>
			<path d="M77.51,72.08H37.59c-4.86,0-9.55-3.7-10.7-8.42L15.83,18.02c-0.68-2.82-3.53-6.51-6.09-7.89l-8.16-4.4
				C0.43,5.12,0,3.68,0.62,2.54l0.22-0.42c0.62-1.15,2.05-1.58,3.2-0.96l8.16,4.4c3.84,2.07,7.65,7,8.68,11.24l11.06,45.64
				c0.57,2.37,3.21,4.44,5.65,4.44h39.92c1.31,0,2.36,1.06,2.36,2.36v0.47C79.87,71.02,78.81,72.08,77.51,72.08z"/>
		</g>
		<g>
			<path d="M76.09,61.2H28.66V56h47.43c2.53,0,5.47-2.1,6.29-4.5l7.25-21.24c0.29-0.85,0.26-1.59-0.09-2.07
				c-0.35-0.48-1.03-0.75-1.93-0.75H20.48v-5.2h67.13c2.58,0,4.83,1.07,6.16,2.93c1.33,1.86,1.61,4.33,0.78,6.77L87.3,53.18
				C85.77,57.68,80.84,61.2,76.09,61.2z"/>
		</g>
		<g>
			<path d="M39.3,89.09c-4.42,0-8.02-3.6-8.02-8.02c0-4.42,3.6-8.02,8.02-8.02c4.42,0,8.02,3.6,8.02,8.02
				C47.32,85.49,43.72,89.09,39.3,89.09z M39.3,78.25c-1.56,0-2.82,1.26-2.82,2.82c0,1.56,1.26,2.82,2.82,2.82
				c1.56,0,2.82-1.26,2.82-2.82C42.12,79.51,40.85,78.25,39.3,78.25z"/>
		</g>
		<g>
			<path d="M72.71,89.09c-4.42,0-8.02-3.6-8.02-8.02c0-4.42,3.6-8.02,8.02-8.02c4.42,0,8.02,3.6,8.02,8.02
				C80.73,85.49,77.13,89.09,72.71,89.09z M72.71,78.25c-1.56,0-2.82,1.26-2.82,2.82c0,1.56,1.27,2.82,2.82,2.82
				c1.55,0,2.82-1.26,2.82-2.82C75.53,79.51,74.27,78.25,72.71,78.25z"/>
		</g>
	</g>
</g>
</svg>
