<?xml version="1.0" encoding="utf-8"?>
<!-- Generator: Adobe Illustrator 27.7.0, SVG Export Plug-In . SVG Version: 6.00 Build 0)  -->
<svg version="1.1" xmlns="http://www.w3.org/2000/svg" xmlns:xlink="http://www.w3.org/1999/xlink" x="0px" y="0px"
	 viewBox="0 0 78.15 89.09" style="enable-background:new 0 0 78.15 89.09;" xml:space="preserve">
<style type="text/css">
	.st0{fill:url(#SVGID_1_);}
</style>
<g id="Ńëîé_2">
	<radialGradient id="SVGID_1_" cx="-103.5" cy="553" r="0" gradientUnits="userSpaceOnUse">
		<stop  offset="0" style="stop-color:#FFFFFF"/>
		<stop  offset="0.3921" style="stop-color:#FDFDFD"/>
		<stop  offset="0.5333" style="stop-color:#F6F7F8"/>
		<stop  offset="0.634" style="stop-color:#EBECED"/>
		<stop  offset="0.7155" style="stop-color:#DADDDF"/>
		<stop  offset="0.7852" style="stop-color:#C4C9CC"/>
		<stop  offset="0.847" style="stop-color:#A8B0B4"/>
		<stop  offset="0.9028" style="stop-color:#889298"/>
		<stop  offset="0.9525" style="stop-color:#647179"/>
		<stop  offset="0.9983" style="stop-color:#3B4C55"/>
		<stop  offset="1" style="stop-color:#394A54"/>
	</radialGradient>
	<path class="st0" d="M-103.5,553"/>
</g>
<g id="Ńëîé_1">
	<g>
		<path d="M6.28,82.86c0-4.79,0.85-9.49,2.53-13.98c2.39-6.37,8.57-10.66,15.38-10.66h29.86c6.81,0,12.99,4.28,15.38,10.66
			c1.68,4.48,2.53,9.19,2.53,13.98H6.28L6.28,82.86z M74.55,66.96L74.55,66.96c-3.2-8.55-11.37-14.21-20.5-14.21h-2.4
			c-3.82,1.76-8.06,2.74-12.53,2.74s-8.72-0.98-12.53-2.74h-2.4c-9.13,0-17.3,5.66-20.5,14.21v0C1.78,72.05,0.8,77.43,0.8,82.86l0,0
			c0,3.02,2.45,5.47,5.47,5.47h65.68c3.02,0,5.47-2.45,5.47-5.47C77.43,77.43,76.46,72.05,74.55,66.96L74.55,66.96z"/>
		<path d="M39.12,6.23c10.56,0,19.16,8.59,19.16,19.16s-8.59,19.16-19.16,19.16s-19.16-8.59-19.16-19.16S28.55,6.23,39.12,6.23
			L39.12,6.23z M39.12,50.02c13.6,0,24.63-11.03,24.63-24.63S52.72,0.75,39.12,0.75S14.49,11.78,14.49,25.39
			S25.52,50.02,39.12,50.02L39.12,50.02z"/>
	</g>
</g>
</svg>
